{
	"asset":{
		"generator":"Khronos glTF Blender I/O v4.5.48",
		"version":"2.0"
	},
	"extensionsUsed":[
		"KHR_materials_specular"
	],
	"scene":0,
	"scenes":[
		{
			"name":"Scene",
			"nodes":[
				0
			]
		}
	],
	"nodes":[
		{
			"mesh":0,
			"name":"cheekMain_GEO",
			"rotation":[
				0.7071068286895752,
				0,
				0,
				0.7071068286895752
			],
			"scale":[
				0.009999999776482582,
				0.009999999776482582,
				0.009999999776482582
			],
			"translation":[
				0,
				0.8399236798286438,
				0.18702122569084167
			]
		}
	],
	"materials":[
		{
			"doubleSided":true,
			"emissiveFactor":[
				1,
				1,
				1
			],
			"emissiveTexture":{
				"index":0
			},
			"extensions":{
				"KHR_materials_specular":{
					"specularColorFactor":[
						0.15000000596046448,
						0.15000000596046448,
						0.15000000596046448
					]
				}
			},
			"name":"body_shd",
			"normalTexture":{
				"index":1
			},
			"pbrMetallicRoughness":{
				"baseColorTexture":{
					"index":2
				},
				"metallicRoughnessTexture":{
					"index":3
				}
			}
		}
	],
	"meshes":[
		{
			"name":"Mesh",
			"primitives":[
				{
					"attributes":{
						"POSITION":0,
						"NORMAL":1,
						"TEXCOORD_0":2,
						"TANGENT":3,
						"COLOR_0":4,
						"COLOR_1":5,
						"COLOR_2":6
					},
					"indices":7,
					"material":0
				}
			]
		}
	],
	"textures":[
		{
			"sampler":0,
			"source":0
		},
		{
			"sampler":0,
			"source":1
		},
		{
			"sampler":0,
			"source":2
		},
		{
			"sampler":0,
			"source":3
		}
	],
	"images":[
		{
			"mimeType":"image/png",
			"name":"Cat_Emit",
			"uri":"Cat_Emit.png"
		},
		{
			"mimeType":"image/png",
			"name":"Cat_NormalMap",
			"uri":"Cat_NormalMap.png"
		},
		{
			"mimeType":"image/png",
			"name":"Cat_Tx",
			"uri":"Cat_Tx.png"
		},
		{
			"mimeType":"image/png",
			"name":"Cat_Metallic-Cat_Roughness",
			"uri":"Cat_Metallic-Cat_Roughness.png"
		}
	],
	"accessors":[
		{
			"bufferView":0,
			"componentType":5126,
			"count":9724,
			"max":[
				42.68753433227539,
				14.375755310058594,
				83.95022583007812
			],
			"min":[
				-42.68753433227539,
				-59.824588775634766,
				-14.621479034423828
			],
			"type":"VEC3"
		},
		{
			"bufferView":1,
			"componentType":5126,
			"count":9724,
			"type":"VEC3"
		},
		{
			"bufferView":2,
			"componentType":5126,
			"count":9724,
			"type":"VEC2"
		},
		{
			"bufferView":3,
			"componentType":5126,
			"count":9724,
			"type":"VEC4"
		},
		{
			"bufferView":4,
			"componentType":5121,
			"count":9724,
			"normalized":true,
			"type":"VEC4"
		},
		{
			"bufferView":5,
			"componentType":5123,
			"count":9724,
			"normalized":true,
			"type":"VEC4"
		},
		{
			"bufferView":6,
			"componentType":5123,
			"count":9724,
			"normalized":true,
			"type":"VEC4"
		},
		{
			"bufferView":7,
			"componentType":5123,
			"count":41478,
			"type":"SCALAR"
		}
	],
	"bufferViews":[
		{
			"buffer":0,
			"byteLength":116688,
			"byteOffset":0,
			"target":34962
		},
		{
			"buffer":0,
			"byteLength":116688,
			"byteOffset":116688,
			"target":34962
		},
		{
			"buffer":0,
			"byteLength":77792,
			"byteOffset":233376,
			"target":34962
		},
		{
			"buffer":0,
			"byteLength":155584,
			"byteOffset":311168,
			"target":34962
		},
		{
			"buffer":0,
			"byteLength":38896,
			"byteOffset":466752,
			"target":34962
		},
		{
			"buffer":0,
			"byteLength":77792,
			"byteOffset":505648,
			"target":34962
		},
		{
			"buffer":0,
			"byteLength":77792,
			"byteOffset":583440,
			"target":34962
		},
		{
			"buffer":0,
			"byteLength":82956,
			"byteOffset":661232,
			"target":34963
		}
	],
	"samplers":[
		{
			"magFilter":9729,
			"minFilter":9987
		}
	],
	"buffers":[
		{
			"byteLength":744188,
			"uri":"Kaju.bin"
		}
	]
}
